<?xml version="1.0" standalone="no"?>
<!DOCTYPE svg PUBLIC "-//W3C//DTD SVG 20010904//EN" "http://www.w3.org/TR/2001/REC-SVG-20010904/DTD/svg10.dtd">
<!-- Created using Krita: https://krita.org -->
<svg xmlns="http://www.w3.org/2000/svg" 
    xmlns:xlink="http://www.w3.org/1999/xlink"
    xmlns:krita="http://krita.org/namespaces/svg/krita"
    xmlns:sodipodi="http://sodipodi.sourceforge.net/DTD/sodipodi-0.dtd"
    width="245.813pt"
    height="245.813pt"
    viewBox="0 0 245.813 245.813">
<defs/>
<path id="shape0" transform="matrix(0.999999993542857 0 0 0.999999993542857 31.4696482358107 44.1601643315676)" fill="#0080ff" stroke="#000000" stroke-width="0" stroke-linecap="square" stroke-linejoin="bevel" d="M0.870473 1.29817e-06C0.419681 0.000633496 0.00054858 0.450407 0 0.900003L0.000937993 18.3301C18.9508 37.2802 37.9007 56.2303 56.8505 75.1805L56.8507 162.331C56.8506 162.781 57.3005 163.201 57.7207 163.2L74.3104 163.2C74.761 163.201 75.1809 162.781 75.1803 162.331L75.1803 75.1808L132.03 18.3305L132.031 0.900469C132.031 0.450374 131.611 0.000211472 131.161 0ZM75.1803 18.3296L106.351 18.3305L75.1812 49.5006C75.1211 33.0006 75.2404 34.8297 75.1803 18.3296ZM56.8507 18.3301L56.8497 49.5016L25.6801 18.3301Z" sodipodi:nodetypes="ccccccccccccccccccccc"/><path id="shape1" transform="matrix(0.999999993542857 0 0 0.999999993542857 130.500476766879 119.340434809478)" fill="#008fff" stroke="#000000" stroke-width="0" stroke-linecap="square" stroke-linejoin="bevel" d="M0.660483 88.0203C0.300695 88.0202 0.000377331 87.6608 0 87.3008L0.000467546 0.720003C-1.26685e-06 0.360001 0.299893 0.000688565 0.660001 0L13.9805 1.01475e-05C14.3404 9.87288e-06 14.6703 0.360518 14.6705 0.720012C14.6701 41.1246 14.6698 69.985 14.6696 87.3013C14.6706 87.6605 14.3404 88.0199 13.9801 88.0203C9.5402 88.0203 5.10034 88.0203 0.660483 88.0203Z" sodipodi:nodetypes="ccccccccc"/><path id="shape01" transform="matrix(0.999999957385337 0 0 0.999999957385337 159.840603067851 90.0007871223443)" fill="#008fff" stroke="#ffffff" stroke-width="0" stroke-linecap="square" stroke-linejoin="bevel" d="M0.660626 117.36C0.300838 117.36 0.000520007 117 0.000142676 116.64L5.48914e-07 0.720003C-0.000468264 0.360001 0.299426 0.000688565 0.659534 0L13.98 1.01475e-05C14.3399 9.87288e-06 14.6698 0.360518 14.67 0.720012L14.6697 116.641C14.6706 117 14.4601 117.36 13.985 117.36C9.54511 117.36 5.10048 117.36 0.660626 117.36Z" sodipodi:nodetypes="ccccccccc"/><path id="shape01" transform="matrix(0.999999948291847 0 0 0.999999948291847 189.180763299675 44.160155919719)" fill="#008fff" stroke="#ffffff" stroke-width="0" stroke-linecap="square" stroke-linejoin="bevel" d="M0.660844 163.201C0.301056 163.201 0.000738493 162.841 0.000361162 162.481L5.48914e-07 0.720003C-0.000468264 0.360001 0.299426 0.000688565 0.659534 0L13.98 1.01475e-05C14.3399 9.87288e-06 14.6698 0.360518 14.67 0.720012L14.6699 162.482C14.6708 162.841 14.4603 163.201 13.9852 163.201C9.54533 163.201 5.1007 163.201 0.660844 163.201Z" sodipodi:nodetypes="ccccccccc"/>
</svg>
